<?xml version="1.0" standalone="no"?>
<!DOCTYPE svg PUBLIC "-//W3C//DTD SVG 20010904//EN"
 "http://www.w3.org/TR/2001/REC-SVG-20010904/DTD/svg10.dtd">
<svg version="1.0" xmlns="http://www.w3.org/2000/svg"
 width="2000.000000pt" height="2000.000000pt" viewBox="0 0 2000.000000 2000.000000"
 preserveAspectRatio="xMidYMid meet">
<metadata>
Created by potrace 1.11, written by Peter Selinger 2001-2013
</metadata>
<g transform="translate(0.000000,2000.000000) scale(0.100000,-0.100000)"
fill="#000000" stroke="none">
<path d="M9825 18293 c-1675 -27 -3354 -594 -4718 -1594 -1840 -1350 -3044
-3381 -3332 -5624 -89 -691 -90 -1439 -4 -2120 211 -1670 920 -3223 2047
-4485 148 -165 482 -498 652 -650 1219 -1089 2704 -1787 4305 -2024 693 -103
1435 -117 2140 -40 1605 174 3152 833 4395 1873 569 476 1074 1027 1500 1636
813 1162 1328 2573 1450 3975 47 538 41 1184 -15 1675 -217 1899 -1044 3617
-2386 4955 -903 900 -1984 1575 -3174 1980 -927 315 -1856 459 -2860 443z
m426 -3714 c389 -30 717 -116 1064 -280 81 -38 271 -145 348 -197 40 -27 79
-51 87 -54 8 -3 63 -44 121 -91 119 -96 312 -293 427 -437 325 -403 527 -882
593 -1405 17 -129 17 -482 1 -605 -22 -159 -61 -346 -103 -482 -22 -72 -39
-131 -37 -133 2 -1 55 -32 118 -70 908 -537 1523 -1330 1700 -2189 75 -367 73
-760 -6 -1114 -130 -580 -426 -1090 -905 -1557 -1130 -1102 -3000 -1583 -4779
-1229 -755 150 -1488 467 -2042 882 -313 236 -612 535 -814 817 -302 420 -484
882 -540 1365 -30 264 -12 594 47 868 182 840 800 1629 1684 2152 50 29 100
59 111 66 l22 13 -34 100 c-37 112 -76 279 -101 433 -13 79 -17 167 -17 383 0
246 2 296 22 410 52 300 122 517 252 780 140 284 273 472 515 726 186 196 285
273 569 446 491 299 1119 448 1697 402z"/>
<path d="M9827 13530 c-332 -42 -658 -179 -912 -383 -109 -88 -256 -243 -338
-357 -79 -112 -184 -318 -225 -445 -166 -506 -93 -1043 200 -1481 481 -720
1428 -992 2228 -640 850 374 1261 1323 943 2176 -185 494 -605 893 -1114 1055
-184 58 -299 76 -514 80 -110 2 -231 0 -268 -5z m531 -288 c293 -64 540 -194
749 -396 131 -126 215 -237 291 -385 68 -132 103 -229 134 -369 33 -145 32
-425 0 -571 -66 -295 -190 -521 -401 -731 -274 -274 -623 -427 -1011 -446
-759 -38 -1427 481 -1565 1216 -24 126 -25 360 -1 489 109 600 577 1071 1184
1191 144 29 143 29 342 25 138 -3 209 -9 278 -23z"/>
<path d="M9925 12325 c-249 -55 -425 -270 -425 -518 0 -183 90 -343 251 -447
296 -191 715 -44 820 289 28 90 29 222 0 312 -39 124 -143 249 -258 312 -111
60 -262 80 -388 52z"/>
<path d="M7591 8883 c-23 -11 -40 -31 -53 -59 -18 -41 -18 -85 -16 -1078 3
-1029 3 -1035 24 -1063 11 -15 36 -36 55 -45 32 -17 172 -18 2494 -18 2437 0
2460 0 2493 20 18 11 41 34 52 52 20 32 20 53 20 1066 0 1137 3 1082 -62 1122
-33 20 -43 20 -2503 20 -2287 0 -2473 -2 -2504 -17z m1127 -275 l-48 -10 0
-327 0 -327 48 -21 47 -21 -482 -1 -483 -1 0 360 0 360 483 -1 c346 -1 469 -4
435 -11z m1120 0 l-28 -10 0 -327 0 -328 25 -13 c14 -7 25 -17 25 -22 0 -4
-188 -8 -417 -8 -416 0 -418 0 -458 23 l-40 23 -3 326 -2 326 27 10 c17 7 195
10 463 10 303 0 427 -3 408 -10z m1123 -2 c-14 -16 -11 -660 3 -688 8 -17 -15
-18 -410 -18 -415 0 -418 0 -441 22 l-23 21 0 327 c0 240 3 329 12 338 9 9
121 12 441 12 365 0 428 -2 418 -14z m1279 -346 l0 -360 -502 2 -503 3 -3 358
-2 357 505 0 505 0 0 -360z m-3480 -497 c0 -4 -19 -36 -42 -72 l-43 -65 -5
-361 -5 -360 -432 -3 -433 -2 0 428 c0 236 3 432 7 435 8 9 953 9 953 0z
m1110 1 c0 -3 -13 -37 -30 -76 l-30 -70 0 -359 0 -359 -432 2 -433 3 -3 347
-2 348 36 72 c20 40 41 79 46 86 8 9 106 12 429 12 231 0 419 -2 419 -6z
m1101 1 c3 -2 0 -37 -7 -77 -9 -50 -13 -187 -14 -430 l0 -358 -430 0 -431 0 4
383 c3 333 5 389 21 435 l18 52 417 0 c230 0 420 -2 422 -5z m1267 -432 l2
-433 -505 0 -505 0 0 428 c0 236 3 432 7 435 3 4 230 6 502 5 l496 -3 3 -432z"/>
</g>
</svg>
